<?xml version="1.0" standalone="no"?>
<!DOCTYPE svg PUBLIC "-//W3C//DTD SVG 20010904//EN"
 "http://www.w3.org/TR/2001/REC-SVG-20010904/DTD/svg10.dtd">
<svg version="1.0" xmlns="http://www.w3.org/2000/svg"
 width="512.000000pt" height="512.000000pt" viewBox="0 0 512.000000 512.000000"
 preserveAspectRatio="xMidYMid meet">
<metadata>
Created by potrace 1.14, written by Peter Selinger 2001-2017
</metadata>
<g transform="translate(0.000000,512.000000) scale(0.100000,-0.100000)"
fill="#000000" stroke="none">
<path d="M1320 5108 c-53 -15 -100 -56 -122 -105 -17 -39 -19 -64 -16 -261 3
-212 4 -220 27 -254 13 -19 40 -46 59 -59 l36 -24 734 -3 c733 -2 735 -2 779
19 27 13 55 37 71 62 l27 41 0 237 0 237 -31 39 c-17 21 -46 47 -65 58 -33 19
-54 20 -749 22 -457 1 -728 -2 -750 -9z"/>
<path d="M402 4919 c-120 -20 -237 -111 -295 -229 l-32 -65 -3 -2079 c-2
-1808 0 -2087 13 -2131 34 -119 126 -220 242 -266 l58 -24 1258 -3 1257 -2 0
175 0 175 -1223 0 c-1173 0 -1225 1 -1240 18 -16 17 -17 173 -17 2040 l0 2021
22 15 c19 13 59 16 240 16 l218 0 0 175 0 175 -222 -1 c-123 -1 -247 -5 -276
-10z"/>
<path d="M3260 4755 l0 -175 190 0 c189 0 191 0 215 -25 l25 -24 0 -1106 0
-1105 170 0 170 0 -2 1153 -3 1152 -32 68 c-58 121 -169 205 -304 226 -35 6
-146 11 -246 11 l-183 0 0 -175z"/>
<path d="M1384 3630 c-136 -148 -250 -270 -253 -270 -4 0 -52 50 -106 110 -55
61 -103 109 -107 108 -15 -6 -248 -220 -248 -229 0 -13 337 -376 367 -396 14
-9 51 -19 82 -21 45 -3 64 1 97 20 26 14 159 151 358 368 l317 345 -73 68
c-40 37 -98 90 -130 117 l-56 50 -248 -270z"/>
<path d="M2110 3315 l0 -175 630 0 630 0 0 175 0 175 -630 0 -630 0 0 -175z"/>
<path d="M1387 2569 c-136 -148 -251 -269 -256 -269 -5 0 -28 21 -52 48 -23
26 -69 75 -101 110 l-58 63 -128 -116 c-70 -65 -126 -119 -125 -121 9 -21 353
-385 377 -400 41 -24 120 -24 168 -1 23 12 151 144 358 369 255 279 318 353
308 363 -7 6 -65 59 -129 118 l-115 106 -247 -270z"/>
<path d="M2110 2255 l0 -175 630 0 630 0 0 175 0 175 -630 0 -630 0 0 -175z"/>
<path d="M3969 1979 c-283 -23 -564 -189 -726 -429 -69 -103 -126 -242 -154
-375 -16 -76 -16 -281 0 -362 123 -634 805 -987 1386 -719 614 284 768 1096
301 1584 -211 220 -493 326 -807 301z m271 -651 l1 -243 159 -165 160 -165
-126 -125 -126 -125 -195 200 c-107 109 -202 213 -211 230 -15 26 -17 73 -20
333 l-3 302 180 0 181 0 0 -242z"/>
<path d="M1380 1510 l-245 -269 -109 114 -108 115 -122 -113 c-66 -62 -122
-117 -123 -122 -2 -6 76 -96 173 -202 181 -197 214 -223 284 -223 77 0 98 18
435 385 l325 353 -63 59 c-157 148 -184 173 -193 173 -5 -1 -119 -122 -254
-270z"/>
<path d="M2110 1205 l0 -175 280 0 280 0 0 175 0 175 -280 0 -280 0 0 -175z"/>
</g>
</svg>
